<?xml version="1.0" standalone="no"?>
<!DOCTYPE svg PUBLIC "-//W3C//DTD SVG 20010904//EN"
 "http://www.w3.org/TR/2001/REC-SVG-20010904/DTD/svg10.dtd">
<svg version="1.0" xmlns="http://www.w3.org/2000/svg"
 width="259.000000pt" height="259.000000pt" viewBox="0 0 259.000000 259.000000"
 preserveAspectRatio="xMidYMid meet">
<metadata>
Created by potrace 1.11, written by Peter Selinger 2001-2013
</metadata>
<g transform="translate(0.000000,259.000000) scale(0.100000,-0.100000)"
fill="#000000" stroke="none">
<path d="M1428 2314 c-3 -3 -43 -7 -89 -9 -164 -7 -259 -44 -350 -137 -47 -47
-130 -179 -130 -205 0 -5 -6 -30 -14 -58 -8 -27 -16 -66 -19 -85 -3 -19 -8
-48 -11 -64 -3 -16 -7 -59 -9 -95 -3 -55 -36 -177 -73 -271 -3 -8 -5 -18 -5
-22 1 -5 -2 -8 -7 -8 -6 0 -27 -16 -48 -35 -21 -19 -44 -35 -50 -35 -7 0 -13
-5 -13 -11 0 -13 41 12 80 48 26 24 46 31 34 11 -13 -20 -12 -92 1 -124 7 -18
34 -46 59 -63 52 -36 57 -48 21 -57 -40 -10 -62 -51 -60 -114 1 -47 -5 -68
-45 -145 -50 -97 -66 -140 -73 -196 -2 -19 -16 -56 -30 -82 -28 -50 -31 -60
-43 -153 -8 -68 -8 -68 -18 -113 -10 -43 -2 -47 76 -44 95 5 220 4 225 -1 3
-2 17 -1 31 3 15 5 36 5 47 1 11 -4 24 -5 29 -2 12 7 445 6 452 -1 4 -4 12 -3
18 0 16 10 396 9 396 -1 0 -5 6 -3 13 3 8 6 17 8 20 4 11 -10 26 62 27 130 0
26 2 28 33 22 123 -22 163 -23 204 -2 42 22 62 49 68 92 7 47 13 80 21 115 13
54 16 103 6 124 -29 65 -50 124 -50 146 -1 53 -15 96 -51 165 -21 39 -42 89
-46 111 -5 21 -10 46 -11 54 -2 8 -6 35 -10 60 -8 54 -26 92 -56 117 -18 14
-23 29 -24 63 0 25 -4 69 -8 98 -8 61 6 69 31 17 9 -19 20 -35 25 -35 8 0 -29
67 -49 88 -7 7 -13 16 -14 20 0 4 -2 32 -4 62 -3 30 -7 66 -10 80 -3 14 -8 36
-11 50 -3 14 -10 41 -16 60 -6 19 -12 41 -13 50 -5 46 -58 150 -101 199 -72
82 -213 161 -296 166 -15 1 -31 4 -34 8 -9 8 -19 9 -26 1z m498 -881 c-3 -8
-10 -12 -16 -8 -8 5 -8 27 0 80 1 6 6 -5 12 -24 5 -18 7 -40 4 -48z m-1130
-55 c-2 -18 -5 -37 -6 -43 -1 -5 -2 -12 -1 -15 3 -8 8 -140 6 -140 -1 0 -13
10 -27 23 -22 18 -26 29 -23 66 2 35 41 141 51 141 2 0 1 -15 0 -32z"/>
<path d="M1990 1510 c0 -5 5 -10 11 -10 5 0 7 5 4 10 -3 6 -8 10 -11 10 -2 0
-4 -4 -4 -10z"/>
<path d="M1994 1482 c4 -7 2 -12 -5 -12 -7 0 -9 -3 -6 -6 3 -4 2 -15 -4 -25
-5 -11 -7 -19 -5 -19 3 0 12 13 21 29 11 22 12 32 3 37 -7 4 -8 3 -4 -4z"/>
<path d="M2100 1471 c0 -7 7 -14 15 -17 8 -3 20 -21 27 -40 14 -38 29 -46 23
-12 -8 41 -65 101 -65 69z"/>
<path d="M2023 1429 c6 -10 15 -19 19 -19 7 0 53 -82 49 -87 -5 -10 1 -23 8
-18 23 14 -36 129 -71 138 -14 4 -15 2 -5 -14z"/>
<path d="M545 1270 c-5 -8 42 -7 49 1 3 3 -6 5 -20 5 -14 0 -27 -3 -29 -6z"/>
</g>
</svg>
